<svg id="Layer_1" data-name="Layer 1" xmlns="http://www.w3.org/2000/svg" viewBox="0 0 1777.43 1402.42"><defs><style>.cls-1{font-size:97.51px;font-family:STHeitiTC-Light, Heiti TC;font-weight:300;}.cls-2,.cls-5{fill:none;}.cls-2,.cls-3,.cls-5{stroke:#000;stroke-miterlimit:10;}.cls-2{stroke-width:4px;}.cls-3,.cls-4{fill:#fff;}.cls-3,.cls-5{stroke-width:2px;}</style></defs><title>logo</title><path d="M851.71,394.31a6.56,6.56,0,0,1-6.4-5.34L834,327.92l-37.27,10.64a6.51,6.51,0,0,1-8.1-7.8l10.89-44.55L767,275.47a6.48,6.48,0,0,1-4.46-5.85l-2.08-44.06c0-26.35,5.84-47.57,17.86-65V86.76a6.57,6.57,0,0,1,3.29-5.67,6.47,6.47,0,0,1,6.56.09l58,34.79c18.1-6.53,42.35-10.56,64.24-10.56,21,0,43.25,3.81,61.6,10.55l56.41-34.74a6.5,6.5,0,0,1,6.6-.17,6.61,6.61,0,0,1,3.33,5.69v73.85c12.55,18.15,18.92,39.92,18.92,64.82l-2.57,44.6a6.51,6.51,0,0,1-4.36,5.78l-31.82,11,10.84,43.56a6.64,6.64,0,0,1-7.52,9.54l-37.23-9.59L973.38,389a6.52,6.52,0,0,1-3.44,4.58,6.62,6.62,0,0,1-5.7.11l-54.83-25.58L854.46,393.7a6.41,6.41,0,0,1-2.75.61ZM908.34,355h2.08a6.53,6.53,0,0,1,2.75.61l49,22.84,11-57.34a6.55,6.55,0,0,1,8-5.08l33.37,8.6-10.08-40.39a6.53,6.53,0,0,1,4.19-7.75L1042,264.93l2.34-39.86c0-22.51-6-42.35-17.72-58.56a6.59,6.59,0,0,1-1.22-3.81V98.41l-49.25,30.3a6.45,6.45,0,0,1-5.79.52c-17.45-6.84-39.26-10.79-59.9-10.79-21.28,0-45.83,4.24-62.51,10.79a6.42,6.42,0,0,1-5.72-.49L791.3,98.25v64.44a6.53,6.53,0,0,1-1.23,3.81c-11.18,15.44-16.63,34.67-16.63,58.78l1.86,39.27,34,11.2a6.48,6.48,0,0,1,4.28,7.7L803.89,323l33.37-9.52a6.35,6.35,0,0,1,5.2.73,6.45,6.45,0,0,1,3,4.34l11.1,59.85,49-22.81a6.81,6.81,0,0,1,2.77-.6Z" transform="translate(-30.18 -12.03)"/><path d="M908.34,319.93c-19,0-39.51-6-39.51-19.1s20.48-19.1,39.51-19.1,39.53,6,39.53,19.1S927.38,319.93,908.34,319.93Zm0-25.17c-16.47,0-25.57,4.65-26.6,6.64,1,.86,10.13,5.54,26.6,5.54s25.58-4.66,26.59-6.61C933.93,299.41,924.84,294.76,908.34,294.76Z" transform="translate(-30.18 -12.03)"/><path d="M875.83,309.45a6.5,6.5,0,0,1-6.51-6.5V202.48L842,184.89A6.49,6.49,0,1,1,849,174l30.34,19.51a6.48,6.48,0,0,1,3,5.46V303A6.47,6.47,0,0,1,875.83,309.45Z" transform="translate(-30.18 -12.03)"/><path d="M940.83,309.45a6.51,6.51,0,0,1-6.5-6.5v-104a6.5,6.5,0,0,1,3-5.46L967.66,174a6.49,6.49,0,1,1,7,10.91l-27.36,17.6V303A6.5,6.5,0,0,1,940.83,309.45Z" transform="translate(-30.18 -12.03)"/><text class="cls-1" transform="translate(730.7 489.09) scale(0.97 1)">ADAM</text><circle class="cls-2" cx="877.87" cy="282.94" r="268.97"/><path class="cls-3" d="M898.24,635" transform="translate(-30.18 -12.03)"/><path class="cls-3" d="M907.13,563.94" transform="translate(-30.18 -12.03)"/><line class="cls-3" x1="871.09" y1="551.91" x2="871.09" y2="622.97"/><path d="M68.84,813.18c-.38-12.16-1.53-23.36-.86-34.45.74-12.35,7.82-20.22,18.61-21.16a30.39,30.39,0,0,1,16.19,3.13c9.52,5.1,18.28,11.64,27.95,18,2.67-2.27,6-5.71,10-8.34,6-4,12-8.26,18.58-10.89,17.59-7,31.62,1.61,32.86,20.53.7,10.6-.7,21.34-1.16,32l-1.52.53a53.94,53.94,0,0,1,6.51,2.42c7.93,4.12,16.48,7.48,23.52,12.8,13.71,10.37,13.8,24.93,1.15,36.56C212.3,872,202,876,191.43,879.52c-.74.25-1.49.47-2.18.68,1.17,8.55,2.7,16.86,3.29,25.24a54.83,54.83,0,0,1-1.27,15.74c-3.38,14.85-14.46,21.08-29.05,16.72-10.73-3.2-19.4-9.81-27.65-17.06-1.44-1.27-2.82-2.61-4.38-4.05-4.66,3.8-8.94,7.94-13.84,11.13-5.6,3.64-11.46,7.25-17.71,9.46-15.88,5.6-28-2.18-30.91-18.8-2-11.7,0-23,2.43-34.34.26-1.23.46-2.47.61-3.26-8-3.69-15.84-6.94-23.29-10.89a42.54,42.54,0,0,1-10.19-8c-9.43-9.64-9.46-21.4-.23-31.33,6.72-7.23,15.38-11.45,24.42-15C64.3,814.73,67.18,813.78,68.84,813.18Zm61.11.12c-4.81.22-9.64.24-14.41.76a6.71,6.71,0,0,0-4.53,2.55q-8.78,14.32-17,29a6.34,6.34,0,0,0,0,5.22c4.56,8.44,9.32,16.79,14.32,25a6.8,6.8,0,0,0,4.91,2.74q16.57.38,33.14,0a6.9,6.9,0,0,0,4.93-2.76q7.52-12.28,14.32-25a7,7,0,0,0,0-5.6c-3.57-7-7.88-13.59-11.27-20.65-3.86-8-9.33-12.46-18.63-11.06A31,31,0,0,1,130,813.3ZM180.38,883c-8.28,1.21-16,2.31-23.77,3.55a4.72,4.72,0,0,0-2.76,1.54c-5.85,7.4-11.59,14.88-17.36,22.35,6.14,7.32,17.89,15.68,26.35,18.74,11.52,4.16,18.64-.07,20.74-12.25C185.56,905.35,183.09,894.27,180.38,883Zm-56.94,27.53c-5.91-7.62-11.57-15-17.32-22.24a4.78,4.78,0,0,0-2.66-1.73c-7.85-1.27-15.72-2.39-23.83-3.59-.57,2.2-1.23,4.33-1.66,6.51-2.08,10.58-4,21.21-.46,31.85,2.51,7.57,8,10.6,15.77,8.64C105.57,926.81,114.68,918.8,123.44,910.49Zm.14-124.78c-8.59-8-17.27-15.58-28.64-19-9.39-2.84-15.82.78-18.11,10.28-2.71,11.2-.83,22.17,1.92,33,9.41-1.35,18.42-2.59,27.41-4a5.69,5.69,0,0,0,3-2.13C113.85,798,118.5,792.09,123.58,785.71ZM181,809.89c.43-1.74.84-3.12,1.1-4.52,1.88-10,3.38-20,.36-30-2.27-7.5-7.67-11-15-9.39-12.83,2.91-22.3,11.17-31.3,19.91,5,6.29,9.7,12.2,14.44,18a5,5,0,0,0,2.53,1.93C162.32,807.31,171.48,808.55,181,809.89Zm6.54,11.38c-3.53,8.83-6.87,17.13-10.13,25.47a4.06,4.06,0,0,0-.14,2.7c2.94,7.41,6,14.78,9.1,22.35,1.29-.34,2.53-.62,3.72-1,9.36-3.07,18.4-6.84,25.65-13.75,6.85-6.53,7.36-13.33,1.26-19.86C209,828.56,198.4,824.57,187.56,821.27ZM73.43,871.82c2.41-6.18,4.35-12.29,7.15-18,2-4.13,2-7.44.07-11.59-3.14-6.74-5.46-13.86-8.1-20.75-9.42,2.1-20.58,7.55-26.94,13-8.89,7.67-9,15.88-.15,23.56C53.49,865.05,63.12,868.81,73.43,871.82Zm56.41,32.42,13.21-16.09H116.47Zm49.08-85.55L158.58,815l13.32,22.75ZM87.77,837.85c4.67-8.05,8.69-15,13.25-22.81l-20.14,3.75Zm31.74-33.2h21l-10.61-12.46Zm41.59,72.73,16.8-3.14c-2.05-5.43-3.87-10.27-6-15.82ZM82,874.26l16.65,3L88,858.44Z" transform="translate(-30.18 -12.03)"/><path d="M130,826.49a21.68,21.68,0,1,1-21.64,21.84A21.88,21.88,0,0,1,130,826.49Z" transform="translate(-30.18 -12.03)"/><path d="M619.06,952.71h-3.39a28,28,0,0,0-2.78-1.14c-23.56-6.76-47.12-13.54-70.71-20.18-3.23-.91-4.67-2.73-4.93-5.94-.73-8.91-1.57-17.81-2.35-26.71q-2.34-26.72-4.69-53.43c-1.42-15.93-2.91-31.85-4.34-47.78-1.64-18.28-3.23-36.56-4.89-54.83-.42-4.51,1.23-6.53,5.78-6.55,6.21,0,12.43,0,18.64,0H707.28c5.82,0,7.15,1.29,6.7,6.93-.66,8.54-1.49,17.06-2.24,25.59q-2.09,23.9-4.18,47.8c-1.6,17.9-3.25,35.79-4.85,53.69q-2.51,27.83-4.94,55.67c-.27,3.06-1.7,4.69-4.64,5.52q-26.57,7.47-53.06,15.13C633.05,948.49,626.06,950.63,619.06,952.71Zm-88.27-207.1c.44,5.49.83,10.81,1.31,16.12,2.38,26.42,4.82,52.83,7.17,79.25s4.65,52.67,6.92,79c.18,2,.86,3.06,3,3.66,22.06,6.21,44.09,12.58,66.14,18.82a8.4,8.4,0,0,0,4.34,0c22.3-6.31,44.57-12.72,66.86-19a2.55,2.55,0,0,0,2.24-2.64c.88-10.49,1.83-21,2.78-31.48q2.73-30.08,5.48-60.14,3.12-34.71,6.15-69.43c.41-4.66.79-9.33,1.19-14.16Z" transform="translate(-30.18 -12.03)"/><path class="cls-4" d="M619.06,952.71c7-2.08,14-4.22,21-6.24q26.5-7.62,53.06-15.13c2.94-.83,4.37-2.46,4.64-5.52q2.38-27.84,4.94-55.67c1.6-17.9,3.25-35.79,4.85-53.69q2.13-23.9,4.18-47.8c.75-8.53,1.58-17,2.24-25.59.45-5.64-.88-6.93-6.7-6.93H545.4c-6.21,0-12.43,0-18.64,0-4.55,0-6.2,2-5.78,6.55,1.66,18.27,3.25,36.55,4.89,54.83,1.43,15.93,2.92,31.85,4.34,47.78q2.38,26.72,4.69,53.43c.78,8.9,1.62,17.8,2.35,26.71.26,3.21,1.7,5,4.93,5.94,23.59,6.64,47.15,13.42,70.71,20.18a28,28,0,0,1,2.78,1.14h-95.5V735.15h194.4V952.71Z" transform="translate(-30.18 -12.03)"/><path d="M650.74,802v27.56c8.74-1.24,17.29-2.41,25.82-3.7,5.13-.78,7.41,1.11,7,6.2-1.53,18.46-3.12,36.93-4.66,55.4a5.52,5.52,0,0,1-4.52,5.36c-15,4.1-30,8.27-45.07,12.38-4.42,1.21-6.93-.69-7-5.3-.07-6.58-.05-13.18,0-19.77,0-3.47,1-4.68,4.34-5.62,8.14-2.28,16.26-4.6,24.45-6.68,2.4-.61,3.62-1.58,3.44-4.12-.11-1.57,0-3.16,0-5.08l-16.36,2.76c-3.24.54-6.48,1.11-9.73,1.62-3.82.6-6-1.15-6.12-5-.07-2.17,0-4.33,0-6.5V780.36c0-5.23,1.45-6.64,6.74-6.64h52.53c5.24,0,6.76,1.54,6.41,6.8s-.79,10.69-1.33,16c-.42,4.12-1.9,5.39-6,5.41-8.85,0-17.7,0-26.55,0Zm27.64-18.61H631.86v69.27a11.32,11.32,0,0,0,1.87,0q12.07-2.07,24.15-4.21c4.55-.81,7,1.44,6.7,6.06-.37,5-.63,9.95-1,14.93-.25,3.72-1.21,4.93-4.83,5.94-8.23,2.3-16.48,4.52-24.69,6.88-.9.26-2.27,1.12-2.32,1.78-.23,3.44-.11,6.89-.11,10.26.52.12.72.23.87.19,11.87-3.23,23.75-6.44,35.58-9.81a3.57,3.57,0,0,0,1.74-2.64c1-10.59,1.9-21.18,2.8-31.77.4-4.75.76-9.51,1.16-14.47-8.78,1.26-17.33,2.46-25.87,3.72-4.59.69-6.82-1.11-6.83-5.73q0-17.5,0-35c0-4.54,1.52-6,6.13-6.06,8.09,0,16.19,0,24.29,0,5.87,0,5.86,0,6.44-5.72C678.09,785.81,678.23,784.69,678.38,783.36Z" transform="translate(-30.18 -12.03)"/><path d="M584.59,866.1V780.32c0-5.06,1.52-6.59,6.53-6.6,5.17,0,10.35,0,15.53,0,4.5,0,6.19,1.68,6.19,6.1q0,59.86,0,119.75c0,4.79-2.47,6.82-7,5.57q-24.84-6.81-49.65-13.78c-3.63-1-4.49-2.25-4.51-6.09q0-10.31,0-20.62c0-5.15,2.46-6.91,7.46-5.52q11.25,3.14,22.52,6.23C582.55,865.61,583.45,865.81,584.59,866.1ZM594,783.32v3.86q0,41.79,0,83.57c0,5.36-2.32,7.09-7.54,5.68-3.26-.88-6.51-1.81-9.77-2.7L561,869.5c0,3.84.13,7.31,0,10.77-.1,2.06.58,2.93,2.59,3.46,9.61,2.56,19.17,5.29,28.76,7.95,3.58,1,7.16,1.93,10.93,3V783.32Z" transform="translate(-30.18 -12.03)"/><path d="M807.77,1354.73c-2.26,6.34-6.91,10.22-12.61,13.57q-35.16,20.64-70,41.83c-7.15,4.33-13.8,4.45-20.82-.16s-14.4-8.9-21.6-13.36c-1.32-.82-2.55-1.8-4.19-3,4.94-2.53,9.19-4.88,13.62-6.83,1-.45,2.82.19,4,.83,5.32,3,10.44,6.29,15.84,9.09,1.48.78,4.1,1,5.46.18q36.13-21.15,72-42.77a7.31,7.31,0,0,0,2.89-5.29q.27-43.08,0-86.15a7.33,7.33,0,0,0-3-5.21q-35.61-22-71.49-43.64a6.88,6.88,0,0,0-5.93,0q-35.88,21.58-71.48,43.66a7.35,7.35,0,0,0-3,5.25q-.27,43.08,0,86.15a7.48,7.48,0,0,0,3,5.23c5.41,3.65,11.11,6.88,16.75,10.17a24.25,24.25,0,0,0,4.89,2.09c8.45,2.65,14.22-1.51,14.26-10.33.06-12.5,0-25,0-37.5,0-15.77.09-31.54-.06-47.31,0-3.41.88-4.78,4.47-4.71,13.09.27,10.83-1.33,10.88,10.86q.17,39.74-.06,79.46a35.64,35.64,0,0,1-2.09,12.17c-4.27,11.26-18.08,17.15-30.73,11.83-10.72-4.5-20.69-10.92-30.66-17-4.57-2.8-6-8-6.05-13.27q-.07-45.31,0-90.62a16.94,16.94,0,0,1,8.82-15.46c25-14.89,49.94-29.9,75-44.79a55.92,55.92,0,0,1,7.28-3.07h3.57a108.71,108.71,0,0,1,10,4.66c23,13.68,46,27.6,69.09,41.17,5.78,3.39,10.29,7.39,12,14Z" transform="translate(-30.18 -12.03)"/><path d="M737.3,1352.89c-8.12-2.09-16.53-3.42-24.26-6.47-9.1-3.58-13.85-11.26-15-21-.38-3.19.6-4.91,4.08-4.59a11.92,11.92,0,0,0,2.67,0c4.71-.67,7.69.34,8.58,5.94.73,4.68,4.56,7.68,9.06,9,9.9,2.89,20,3.39,29.81,0a16.07,16.07,0,0,0,8.06-6.92c3.21-5.8,1.14-10.85-5.25-12.53-7.86-2.06-16-2.9-24-4.41a152.8,152.8,0,0,1-15.61-3.42c-8.62-2.59-13.94-8.4-14.7-17.59-.81-9.85,2.55-17.89,11.46-22.87,9.45-5.3,19.86-6.12,30.3-4.89a72.53,72.53,0,0,1,18.42,4.6c7.77,3.13,11.55,9.85,12.73,18,.38,2.61-.44,4-3.28,3.89a31.85,31.85,0,0,0-5.35,0c-3.48.46-4.93-1.07-6.62-4.17a15.54,15.54,0,0,0-8-7,49,49,0,0,0-26.84-.44,13.87,13.87,0,0,0-4.35,2.17,7.71,7.71,0,0,0-3.11,9.07,8.93,8.93,0,0,0,5.37,5.07c8.66,2,17.49,3.27,26.23,4.92,4.23.79,8.47,1.6,12.59,2.8,8.18,2.38,14.77,6.79,16.09,15.94,1.41,9.8-.66,18.71-8.82,25.25-8.74,7-19.16,8.22-29.87,8.28Z" transform="translate(-30.18 -12.03)"/><path d="M1372.05,897.73c-1.82,6.89-5.41,12.47-11.9,15.83a18.6,18.6,0,0,1-4.84,1.76c-2.28.46-4.35-.57-4.72-2.79-.24-1.49.65-3.38,1.55-4.76.73-1.11,2.27-1.66,3.37-2.57,4.7-3.85,5.85-9,3.21-14.5-2.82-5.85-7.64-9.49-13.62-11.54a55.17,55.17,0,0,0-31-1.4,10.2,10.2,0,0,0-1.67.59c0,4.72.62,9-.13,13.12-1.51,8.08-7.28,13.21-14,17.26a47.75,47.75,0,0,1-8.58,3.9c-8.68,3.06-13,1.06-16.33-7.62-4.93,10.5-13.92,15.11-24.39,17.38a30.18,30.18,0,0,1-9.67.42c-6.09-.73-8.89-6.56-5.67-11.83a102.57,102.57,0,0,1,7.39-9.7c3.29-4.15,6.59-8.29,10-12.35a3.32,3.32,0,0,0,.53-4.12c-1.74-3.55-3.26-7.21-5-11.09-.37.64-.78,1.23-1.09,1.87-6.68,13.49-13.17,27.07-20.13,40.41a29,29,0,0,1-7.57,8.63c-5.92,4.79-12.68,2.62-15.39-4.53-.4-1-.72-2.1-1.17-3.43-1.6,2.72-2.92,5.32-4.55,7.7-6.31,9.2-17.23,9-23-.51-6.53-10.85-7.52-22.6-5.09-34.81.12-.59.2-1.2.29-1.8,0-.09-.07-.19-.27-.7l-5.61,3.19c.6,6.45,1.71,12.48,1.64,18.49a48.47,48.47,0,0,1-41.18,47.84,43.89,43.89,0,0,1-12.17.12c-10.48-1.3-17.13-9.21-17.5-20.44a33.59,33.59,0,0,1,9.81-25.18c8.26-8.65,18.18-15,28.49-20.85,1.6-.9,3.22-1.75,5.16-2.8-1.53-1.16-2.85-2.21-4.23-3.2-7.77-5.6-15.73-10.94-23.28-16.82-11.67-9.08-21.54-19.62-25.18-34.61V825a68,68,0,0,1,12.55-26.48c9.25-12,20.71-21.6,33.46-29.63,19.24-12.12,39.59-21.85,61.94-26.67,16.23-3.51,32.63-4.07,48.54,1.58a53.56,53.56,0,0,1,15.4,8.46c11.86,9.52,13.74,22.47,9.91,36.28-6.38,23-22,37.91-43.56,46.75-16.16,6.63-33.09,9.43-50.56,6.25a30.81,30.81,0,0,1-19.67-11.9,17.77,17.77,0,0,1-3-7.48c-.21-1.25,1.12-3.45,2.34-4.07s3.79-.41,4.67.5c8.34,8.67,18.75,9.58,29.71,8.15,18-2.35,33.9-9.22,47-22,5-4.87,9.32-10.32,11.67-17a30.11,30.11,0,0,0,1.64-8.62c.25-5.63-2.46-9.75-7.51-12.24-7.94-3.91-16.47-4.28-25.07-3.87-14.76.71-28.66,4.87-42,11-16.07,7.36-31.43,15.93-44.54,28-5.12,4.73-9.62,10-12.6,16.37-5,10.66-4.16,20.8,4,29.44,5.37,5.66,11.58,10.53,17.52,15.64,5.17,4.46,10.53,8.69,15.68,13.16a2.55,2.55,0,0,0,3.46.34c7.2-4,14.47-7.91,21.66-12a12.49,12.49,0,0,0,3.16-2.79c5.7-6.55,12.14-12.12,20.55-14.83,9.17-3,16.13,1.76,17,11.31.13,1.31.23,2.62.34,3.92,1,.25,1.89.43,2.76.69,4.92,1.49,6.83,4.82,5.57,9.81-1.31,5.21-2.71,10.39-3.6,15.76a11.12,11.12,0,0,0,.88-1.42c5.2-11.72,10.45-23.42,15.52-35.19,1.43-3.35,2.1-7,3.53-10.38a8,8,0,0,1,3.58-4.11,23.21,23.21,0,0,1,15-1.11c4.24,1.13,5.75,4,4.26,8.13-2.31,6.44-3.64,12.93-2.09,19.76.11.49.16,1,.3,1.49s.36,1,.69,1.81a15.38,15.38,0,0,0,1.48-1.91c3.49-6.45,7.21-12.79,10.31-19.41,1.93-4.11,2.64-8.76,4.42-12.95.78-1.83,2.66-4.11,4.38-4.45a53.56,53.56,0,0,1,13.55-.94c3.89.23,6.87,3.67,4.94,8.43-2.44,6-3.8,12.33-2.14,18.81.9,3.49,2.36,6.84,3.45,9.94,6.32-1.43,12-3.25,17.76-3.92,14.86-1.69,28.64,1,39.91,11.75,4.93,4.72,7.48,10.76,9.25,17.2Zm-76.57-18.07-.67.75c-5,2.59-8.17,7-10.87,11.63a37.24,37.24,0,0,0-4,10.45c-.94,4.18,1.67,6.39,5.7,5A44.26,44.26,0,0,0,1296,903c9.31-6.17,13.5-11.86,8.93-24.19-1-2.59-.17-4.24,2.47-5.24a54.55,54.55,0,0,1,24.64-3.2c14,1.26,26.55,5.21,33.21,19.31a6.36,6.36,0,0,0-.36-2.09,25.63,25.63,0,0,0-1.69-3.91c-5.52-9.35-14.07-14.19-24.51-15.89A53.41,53.41,0,0,0,1307,872c-1.86.86-3.87,1.6-5.17-.54-5.07-8.38-8.35-17.25-6.49-27.27.63-3.35,1.65-6.63,2.64-10.54-3.08.18-5.88.32-8.68.5a3.42,3.42,0,0,0-3.35,3c-.7,2.86-1.13,5.9-2.45,8.47-5.18,10.15-10.59,20.18-16.07,30.16-1.57,2.85-4.29,2.6-5.9-.29a34.78,34.78,0,0,1-3.07-27.73c.49-1.71,1-3.41,1.73-5.84-3.66.32-6.78.45-9.84,1-.77.13-1.6,1.38-2,2.28-1.12,3-1.79,6.07-3.06,8.94q-10.86,24.55-22,49a21.54,21.54,0,0,1-3.26,5.45c-.86,1-2.72,1.93-3.79,1.65a4.64,4.64,0,0,1-2.5-3.3,19.26,19.26,0,0,1,.15-7q3.1-13.84,6.64-27.59c.67-2.6-.16-3.19-2.55-3.37a44.52,44.52,0,0,1-6.09-1.24c0-2.75.09-5.08,0-7.41-.31-6.94-3.49-9.18-10-6.92-7.18,2.49-12.49,7.48-17.22,13.22a12.33,12.33,0,0,1-3.31,3.06c-8.61,4.83-17.31,9.49-25.93,14.31-2.15,1.2-3.68.82-5.43-.81-3.72-3.47-7.58-6.79-11.46-10.09-7.45-6.32-15.44-12.09-22.34-19-12.32-12.29-13.92-26.86-4.88-41.76a61.91,61.91,0,0,1,11.94-14.56c24.47-21.26,52.3-35.88,84.75-40.44,10.67-1.49,21.36-1,31.54,3.25,10.47,4.4,14.49,11.65,12.66,22.85a40.35,40.35,0,0,1-6.64,15.94,69.32,69.32,0,0,1-28.34,24c-17.61,8.43-35.79,13.51-55.49,7.12,3.5,1.85,7,4.09,10.86,4.69,24.65,3.89,47.2-1.5,66.91-16.91,10.76-8.41,18.39-19.32,21.44-32.9,3.53-15.72-2.17-27.18-16.68-34a62.26,62.26,0,0,0-22.13-5.35c-17.21-1.29-33.6,2.15-49.54,8.42-21.19,8.33-41.12,18.8-58.13,34.16-9.62,8.69-17.69,18.53-22.15,31a23.59,23.59,0,0,0,2.13,21.37c2.67,4.29,5.5,8.76,9.22,12.07,7.74,6.89,16,13.16,24.24,19.51,5.23,4.06,10.75,7.73,16,11.75,2.89,2.21,2.64,4.39-.5,6.17-2.84,1.61-5.77,3-8.6,4.64-10.3,5.86-20.4,12-28.21,21.15a26.93,26.93,0,0,0-6.78,19.71c.48,7.9,4.71,13,11.78,14.1a37.92,37.92,0,0,0,7.3.4c27.81-1.1,47.92-31.91,36.93-59.23-1-2.6-.59-4.23,1.81-5.57,4.63-2.57,9.14-5.36,13.84-7.79,1.23-.64,3.49-.93,4.34-.24s1,2.9.77,4.33c-.62,3.7-1.82,7.3-2.45,11-1.63,9.62-.47,18.78,4.4,27.46,3.37,6,10.49,5.55,13.39,0,2-3.78,3.93-7.59,5.77-11.44,1.31-2.75,2.42-5.6,3.59-8.42.76-1.82,2.14-3.18,4-2.21,1.09.58,1.57,2.44,2.15,3.81.19.47-.27,1.18-.26,1.77.11,4.45-.23,9,.53,13.33.69,4,4.22,4.85,7.08,2a40.81,40.81,0,0,0,6.18-8.24A395.87,395.87,0,0,0,1244.2,863a5.41,5.41,0,0,1,3.49-3c.9-.11,2.81,1.82,3,3a69.58,69.58,0,0,0,7.65,21.77,4.36,4.36,0,0,1-.55,5.33q-8.4,10.3-16.66,20.72c-1.17,1.47-2.07,3.15-3.51,5.37,2,.39,3.35.93,4.67.88a34.24,34.24,0,0,0,20-7.26c4.41-3.38,6.83-8,6.28-13.52-.36-3.7-1.73-7.28-2.36-11a7.8,7.8,0,0,1,.5-4.78q7.58-13.43,15.57-26.6c.72-1.18,2.54-2.6,3.59-2.41s2.38,2,2.87,3.35q3.39,9.42,6.3,19C1295.63,875.73,1295.37,877.75,1295.48,879.66Zm-20.61,14.67,14.06-18.84c-1.42-3.5-3-7.52-4.71-11.65-3.09,5.1-6,10.32-9.34,15.26-1.94,2.89-3,5.44-1.42,8.91C1274.44,890.17,1274.54,892.73,1274.87,894.33Z" transform="translate(-30.18 -12.03)"/><path d="M1295.48,879.66c3.39-.6,4.44.1,5.06,3.36,1.83,9.55-2.28,17.51-11.19,21.22-1.31.55-3.65.77-4.39,0a6.21,6.21,0,0,1-1.51-4.83,33.53,33.53,0,0,1,8.74-16.49c.82-.89,1.74-1.69,2.61-2.53Z" transform="translate(-30.18 -12.03)"/><path d="M1154,901.71c-.11,17.17-10,31.7-24.48,37.44a25.36,25.36,0,0,1-6.49,1.53c-8.21.86-12.59-3.53-11.83-11.75.67-7.22,4.09-13.2,9-18.23,7.91-8.05,17.36-14.07,27-19.74,2.85-1.67,5-.64,5.62,2.59S1153.8,900,1154,901.71Zm-6.71-3.64c-8.73,5.39-17,10.76-23.76,18.09a25,25,0,0,0-6.25,12.71c-.84,4.72,1,6.62,5.63,5.83C1138.41,932.09,1150.72,913.88,1147.31,898.07Z" transform="translate(-30.18 -12.03)"/><path d="M1181.35,898.75a58.25,58.25,0,0,1,13.24-34.56,22,22,0,0,1,7.67-5.82c5.4-2.56,9.36.58,8.11,6.43a125.39,125.39,0,0,1-4.76,16.68c-3,8.21-6.35,16.26-9.66,24.34a30.53,30.53,0,0,1-2.87,5c-1.3,2-3.21,3.76-5.52,2.88a7.93,7.93,0,0,1-4.24-4.26C1182.2,906.05,1182,902.34,1181.35,898.75Zm7.69,7.57c6.25-13.84,11.73-27.43,15.42-42.14C1193.82,869.27,1184.41,894.91,1189,906.32Z" transform="translate(-30.18 -12.03)"/><path d="M1264,896c-1.59,3.38-2.44,6.86-4.53,9.23a59,59,0,0,1-10.39,8.67,3.58,3.58,0,0,1-5.18-.85c-1.35-2-.45-3.59.93-5.17,4.07-4.67,8-9.47,12.16-14,.94-1,2.93-2.14,3.94-1.78C1262.11,892.46,1262.81,894.39,1264,896Z" transform="translate(-30.18 -12.03)"/><path class="cls-4" d="M1807.6,956.52H1582.18V731.13H1807.6ZM1583,843.89a112.06,112.06,0,1,0,112.12-111.95A112.15,112.15,0,0,0,1583,843.89Z" transform="translate(-30.18 -12.03)"/><path d="M1583,843.89a112.06,112.06,0,1,1,112,112.16A112.08,112.08,0,0,1,1583,843.89Zm219.28.13c.06-58.93-48-107.08-107-107.25S1588,784.68,1587.84,843.83s48,107.27,107.12,107.4C1753.92,951.35,1802.25,903.08,1802.3,844Z" transform="translate(-30.18 -12.03)"/><path d="M1718,857.56h-66.31c-3.71,0-4.1-.42-4.44-4.18q-2.71-29.94-5.48-59.88c-.26-2.87.53-3.73,3.71-3.73h99.87c4.07,0,4.54.46,4.2,4.58-.46,5.77-1,11.53-1.56,17.28-.34,3.42-.74,3.73-4.14,3.73h-74.32c.5,5.62,1,11,1.46,16.57h70.81c3.62,0,4.26.59,3.94,4.15-1.3,14.44-2.66,28.87-4,43.31-.54,5.76-1.14,11.51-1.6,17.27a3.17,3.17,0,0,1-2.58,3.2c-13.4,3.79-26.78,7.63-40.2,11.36a7.26,7.26,0,0,1-3.7-.1c-13.18-3.69-26.33-7.47-39.51-11.18-1.71-.48-2.79-1.27-3-3.17-1-11.13-2-22.25-3-33.38-.29-3.34.31-3.91,3.66-3.91q9.15,0,18.31,0c2.78,0,3.44.65,3.69,3.44.45,5,.86,9.94,1.43,14.9a2.69,2.69,0,0,0,1.52,1.87c5.91,1.78,11.85,3.45,17.81,5.05a5.45,5.45,0,0,0,2.74-.13c5.57-1.53,11.12-3.15,16.68-4.71,1.2-.34,2.06-.72,2.18-2.29C1716.73,871,1717.37,864.49,1718,857.56Zm22.74-20.81h-70.35c-3.48,0-3.82-.32-4.14-3.66q-.87-9.11-1.73-18.22c-.34-3.67.3-4.37,4-4.37h74.7c.48-5.39.94-10.48,1.4-15.65H1646.8c1.75,19.32,3.49,38.46,5.25,57.85h66.48c4.47,0,4.76.23,4.38,4.79-.62,7.5-1.42,15-2,22.49-.19,2.36-1.25,3.44-3.5,4-6.66,1.76-13.25,3.76-19.89,5.54a7.4,7.4,0,0,1-3.68,0c-6.8-1.84-13.54-3.87-20.34-5.7a3.51,3.51,0,0,1-3-3.64c-.38-5.27-1-10.52-1.46-15.83h-15.7c0,.65,0,1.19,0,1.72.81,9,1.68,18,2.39,27,.14,1.69.62,2.46,2.3,2.93,12,3.31,23.9,6.76,35.88,10.07a7.17,7.17,0,0,0,3.65,0c11.36-3.14,22.69-6.38,34-9.6,3.84-1.09,3.76-1.1,4.13-5.22,1.18-13.18,2.43-26.35,3.64-39.52C1739.86,846.83,1740.27,842,1740.73,836.75Z" transform="translate(-30.18 -12.03)"/><path d="M1165,1385c-3.64,9.13-11,14.26-19.52,18.1-19.68,8.86-40.57,11.36-61.87,11.34a157.44,157.44,0,0,1-45.34-6.27c-1.27-.38-2.54-.78-3.79-1.23-.23-.09-.36-.46-.47-.62,46,5.37,91.11,5.85,131-23.32Z" transform="translate(-30.18 -12.03)"/><path d="M1165,1316c-5.44,14.66-14.78,21.94-30.84,23.75,3.26-3,6.6-5.5,9.21-8.61,3.18-3.77,6.41-7.74,8.43-12.17,4-8.85-.48-15.89-10.16-17-.9-.1-1.8-.15-3.07-.26,10.67-7.47,21-4.08,26.43,8.24Z" transform="translate(-30.18 -12.03)"/><path d="M1129.9,1307.48a31.89,31.89,0,0,1-20,8.45q-26.65,1.63-53.31,3c-2.65.13-5.64,0-5.54,3.22,0,1.57,2.62,4.22,4.26,4.39,10,1,20.16,2.12,30.23,2,6.89-.09,13.74-2.28,20.65-3.22a10.88,10.88,0,0,1,6,1c3.07,1.52,5.84,3.65,9.48,6a104,104,0,0,1-33.91,7.63c-7.3.46-14.65,0-22,.22-1.62.05-3.21,1.22-4.82,1.88,1.3,1.6,2.48,4.45,3.92,4.6,7.41.74,14.93,1.42,22.33.91,6.4-.44,12.65-2.71,19-3.72a11.2,11.2,0,0,1,6.24,1.41,97.05,97.05,0,0,1,8.7,5.43l.13,1.82c-7.35,2.23-14.6,4.9-22.07,6.58a99,99,0,0,1-37.23,1,29.39,29.39,0,0,1-5.35-1.2c-4-1.44-9.09-2.53-9.19-7.82s4.22-7.93,8.73-9.79c1-.4,2-.72,3.34-1.2-6-1.77-11.64-3-16.93-5.14-2.31-.92-5.3-3.5-5.45-5.51s2.46-4.75,4.46-6.45,4.82-2.59,8.12-4.26c-4-.66-7.25-1.07-10.4-1.74-2.6-.55-5.4-1-7.6-2.28s-5.52-3.86-5.34-5.55c.24-2.29,3-5,5.32-6.21a39.13,39.13,0,0,1,11.43-3.28,114.52,114.52,0,0,1,19.62-1.31l-14,6.33.21,2.11c3.74.73,7.45,1.81,11.23,2.14a313.61,313.61,0,0,0,66.82-1.15C1127.68,1307.69,1128.32,1307.64,1129.9,1307.48Z" transform="translate(-30.18 -12.03)"/><path d="M1136.68,1363.42c7.91,4.18,8.69,10.5,2.13,15.91-7.3,6-16.23,8.36-25.26,10-29.65,5.48-59.3,5.94-88.7-1.5a48.38,48.38,0,0,1-15.66-7.33c-6.76-4.79-5.74-12.42,1.49-16.57s19.17-3.44,24.13,1.54c-2.86.49-5.91.53-8.53,1.61-1.91.79-4.39,2.85-4.54,4.53s2.1,4.47,3.83,5c7.6,2.29,15.3,4.67,23.14,5.67,22.44,2.86,44.88,2.52,67.09-2.31a65.34,65.34,0,0,0,11.81-3.89C1133,1373.79,1137.56,1370.55,1136.68,1363.42Z" transform="translate(-30.18 -12.03)"/><path d="M1106.64,1204.74c5.11,6.9,5.94,14.44,1.42,21.46-4,6.22-9.17,11.76-14.19,17.26s-10.55,10.18-15.5,15.57c-4.58,5-5.72,10.6-1.83,16.87s7.51,13.09,11,19.91c-10.53-6.64-20.69-13.74-27.06-24.87-4.09-7.15-3.64-13.34,2.16-19.22,5-5.06,10.86-9.26,16.44-13.72,7-5.6,14.38-10.79,21.14-16.68C1105,1217.13,1107.63,1211.54,1106.64,1204.74Z" transform="translate(-30.18 -12.03)"/><path d="M1106.47,1296.62c6.91-9,6.94-11.38.22-20.65-9.55-13.17-7.18-25.08,6.79-33.51,8.41-5.07,17.73-7.34,27.79-7.74-2,1.29-4,2.47-5.94,3.89-5.58,4.2-11.38,8.17-16.56,12.82-5.49,4.92-5.75,8.06-2.7,14.69,1.33,2.87,3,5.61,4.12,8.53C1124.29,1284.88,1117.73,1295.31,1106.47,1296.62Z" transform="translate(-30.18 -12.03)"/><polyline class="cls-5" points="1664.82 718.97 1664.82 622.97 99.82 622.97 99.82 771.97"/><line class="cls-5" x1="586.74" y1="622.97" x2="586.82" y2="726.97"/><line class="cls-5" x1="1197.54" y1="622.97" x2="1197.82" y2="726.97"/><polyline class="cls-5" points="683.82 1185.97 869.26 835.97 1053.82 1187.97"/><line class="cls-5" x1="868.82" y1="835.97" x2="871.09" y2="622.97"/><circle class="cls-2" cx="877.29" cy="282.46" r="280.46"/></svg>